<?xml version="1.0" encoding="UTF-8"?>
<svg id="Ebene_2" xmlns="http://www.w3.org/2000/svg" version="1.1" viewBox="0 0 39.52 33.29">
  <!-- Generator: Adobe Illustrator 29.8.2, SVG Export Plug-In . SVG Version: 2.1.1 Build 3)  -->
  <defs>
    <style>
      .st0 {
        fill: #1d1d1b;
      }
    </style>
  </defs>
  <path class="st0" d="M39.52,15.41H6.5V3.27c0-.56.3-1.02.82-1.24.51-.22,1.06-.13,1.46.25l3.93,3.68-1.76,1.76,2.43,2.43,5.15-5.15-2.43-2.43-2.04,2.04-3.98-3.72C9.11-.01,7.76-.25,6.55.28c-1.21.53-1.96,1.67-1.96,2.99v12.14H0v2.38h4.35v7.88c0,2.71,2.2,4.91,4.91,4.91h1.03v2.71h2.38v-2.71h14.18v2.71h2.38v-2.71h1.03c2.71,0,4.91-2.2,4.91-4.91v-7.88h4.35v-2.38ZM32.79,25.67c0,1.39-1.13,2.53-2.53,2.53H9.26c-1.39,0-2.53-1.13-2.53-2.53v-7.88h26.05v7.88Z"/>
</svg>