<?xml version="1.0" encoding="UTF-8"?>
<svg id="Ebene_2" xmlns="http://www.w3.org/2000/svg" version="1.1" viewBox="0 0 26.12 25.34">
  <!-- Generator: Adobe Illustrator 29.8.2, SVG Export Plug-In . SVG Version: 2.1.1 Build 3)  -->
  <defs>
    <style>
      .st0 {
        fill: #1d1d1b;
      }
    </style>
  </defs>
  <path class="st0" d="M9.6,11.51c3.17,0,5.76-2.58,5.76-5.76S12.78,0,9.6,0,3.85,2.58,3.85,5.76s2.58,5.76,5.76,5.76ZM9.6,2.38c1.86,0,3.38,1.51,3.38,3.38s-1.51,3.37-3.38,3.37-3.38-1.51-3.38-3.37,1.51-3.38,3.38-3.38Z"/>
  <path class="st0" d="M22.92,5.76c0-3.17-2.58-5.76-5.76-5.76v2.38c1.86,0,3.37,1.51,3.37,3.38s-1.51,3.37-3.37,3.37v2.38c3.17,0,5.76-2.58,5.76-5.76Z"/>
  <path class="st0" d="M13.18,14.35h-7.15c-3.32,0-6.03,2.7-6.03,6.03v4.96h19.21v-4.96c0-3.32-2.7-6.03-6.03-6.03ZM16.83,22.96H2.38v-2.58c0-2.01,1.64-3.65,3.65-3.65h7.15c2.01,0,3.65,1.64,3.65,3.65v2.58Z"/>
  <path class="st0" d="M20.09,14.35v2.38c2.01,0,3.65,1.64,3.65,3.65v3.77h2.38v-3.77c0-3.32-2.7-6.03-6.03-6.03Z"/>
</svg>